{"title":"Spy.2015.CAM.x264-MenaceIISociety","uid":12008101,"size":1214809142,"categoryP":"video","categoryS":"movies","magnet":"?xt=urn:btih:3b8f9a534ead7b217d369ec44b783866e1065b3f&amp;dn=Spy.2015.CAM.x264-MenaceIISociety&amp;tr=udp%3A%2F%2Ftracker.openbittorrent.com%3A80&amp;tr=udp%3A%2F%2Fopen.demonii.com%3A1337&amp;tr=udp%3A%2F%2Ftracker.coppersurfer.tk%3A6969&amp;tr=udp%3A%2F%2Fexodus.desync.com%3A6969","seeders":10,"leechers":2,"uploader":"xxxlavalxxx","files":4,"time":1434021570,"description":" &lt;a href=&quot;http://extraimago.com/image/jyo&quot; rel=&quot;nofollow&quot; target=&quot;_NEW&quot;&gt;http://extraimago.com/image/jyo&lt;/a&gt;\n &lt;a href=&quot;\nhttp://www.imdb.com/title/tt3079380/&quot; rel=&quot;nofollow&quot; target=&quot;_NEW&quot;&gt;\nhttp://www.imdb.com/title/tt3079380/&lt;/a&gt;\n\n\nSusan Cooper is an unassuming, deskbound CIA analyst, and the unsung hero behind the Agency's most dangerous missions. But when her partner falls off the grid and another top agent is compromised, she volunteers to go deep undercover to infiltrate the world of a deadly arms dealer, and prevent a global crisis.\n\nDirector: Paul Feig\nWriter: Paul Feig\nStars: Melissa McCarthy, Rose Byrne, Jude Law \nGenres: Action | Comedy | Crime\nCountry: USA\nLanguage: English | French | Italian | German\n\n\nSpy.2015.CAM.x264-MenaceIISociety\n &lt;a href=&quot;\nhttp://www.imdb.com/title/tt3079380/&quot; rel=&quot;nofollow&quot; target=&quot;_NEW&quot;&gt;\nhttp://www.imdb.com/title/tt3079380/&lt;/a&gt;\nSources: 6p10H.2O15.D.CAMRip.PROPER.2100MB / Audio is from MRG [THANKS]\n\nNote: sorted the perspective better, i didnt want to crop the top as u would lose a lot but its alot straighter now its been fixed, and theres no half heads. its defo watchable\n\nGeneral\nComplete name: Spy.2015.CAM.x264-MenaceIISociety.mp4\nFormat: MPEG-4\nFormat profile: Base Media\nCodec ID: isom\nFile size: 1.11 GiB\nDuration: 1h 55mn\nOverall bit rate mode: Variable\nOverall bit rate: 1 371 Kbps\nEncoded date: UTC 2015-06-10 17:11:17\nTagged date: UTC 2015-06-10 17:11:17\n\nVideo\nID: 1\nFormat: AVC\nFormat/Info: Advanced Video Codec\nFormat profile: &lt;a class=&quot;__cf_email__&quot; href=&quot;/cdn-cgi/l/email-protection&quot; data-cfemail=&quot;f4bc9d939cb4b8c0dac5&quot;&gt;[email&amp;#160;protected]&lt;/a&gt;&lt;script data-cfhash='f9e31' type=&quot;text/javascript&quot;&gt;\n/* &lt;![CDATA[ */!function(){try{var t=&quot;currentScript&quot;in document?document.currentScript:function(){for(var t=document.getElementsByTagName(&quot;script&quot;),e=t.length;e--;)if(t[e].getAttribute(&quot;data-cfhash&quot;))return t[e]}();if(t&amp;&amp;t.previousSibling){var e,r,n,i,c=t.previousSibling,a=c.getAttribute(&quot;data-cfemail&quot;);if(a){for(e=&quot;&quot;,r=parseInt(a.substr(0,2),16),n=2;a.length-n;n+=2)i=parseInt(a.substr(n,2),16)^r,e+=String.fromCharCode(i);e=document.createTextNode(e),c.parentNode.replaceChild(e,c)}t.parentNode.removeChild(t);}}catch(u){}}()/* ]]&gt; */&lt;/script&gt;\nFormat settings, CABAC: Yes\nFormat settings, ReFrames: 3 frames\nCodec ID: avc1\nCodec ID/Info: Advanced Video Coding\nDuration: 1h 55mn\nBit rate mode: Variable\nBit rate: 1 250 Kbps\nMaximum bit rate: 40.0 Mbps\nWidth: 672 pixels\nHeight: 256 pixels\nDisplay aspect ratio: 2.625\nFrame rate mode: Constant\nFrame rate: 29.970 fps\nColor space: YUV\nChroma subsampling: 4:2:0\nBit depth: 8 bits\nScan type: Progressive\nBits/(Pixel*Frame): 0.242\nStream size: 1.01 GiB (91%)\nWriting library: x264 core 146 r2538 121396c\nEncoding settings: cabac=1 / ref=4 / deblock=1:-1:-1 / analyse=0x3:0x113 / me=umh / subme=9 / psy=1 / psy_rd=1.00:0.15 / mixed_ref=1 / me_range=18 / chroma_me=1 / trellis=2 / 8x8dct=1 / cqm=0 / deadzone=21,11 / fast_pskip=0 / chroma_qp_offset=-3 / threads=12 / lookahead_threads=1 / sliced_threads=0 / slices=4 / nr=1 / decimate=1 / interlaced=0 / bluray_compat=0 / constrained_intra=0 / bframes=3 / b_pyramid=1 / b_adapt=2 / b_bias=0 / direct=1 / weightb=1 / open_gop=0 / weightp=0 / keyint=29 / keyint_min=2 / scenecut=40 / intra_refresh=0 / rc_lookahead=29 / rc=2pass / mbtree=1 / bitrate=1250 / ratetol=1.0 / qcomp=0.60 / qpmin=10 / qpmax=51 / qpstep=4 / cplxblur=20.0 / qblur=0.5 / vbv_maxrate=40000 / vbv_bufsize=30000 / nal_hrd=vbr / filler=0 / ip_ratio=1.40 / aq=1:1.00\nEncoded date: UTC 2015-06-10 17:11:17\nTagged date: UTC 2015-06-10 17:12:48\nColor primaries: BT.709\nTransfer characteristics: BT.709\nMatrix coefficients: BT.709\n\nAudio\nID: 2\nFormat: AAC\nFormat/Info: Advanced Audio Codec\nFormat profile: LC\nCodec ID: 40\nDuration: 1h 55mn\nBit rate mode: Variable\nBit rate: 118 Kbps\nMaximum bit rate: 152 Kbps\nChannel count: 2 channels\nChannel positions: Front: L R\nSampling rate: 44.1 KHz\nCompression mode: Lossy\nStream size: 97.1 MiB (9%)\nEncoded date: UTC 2015-06-10 17:06:37\n\n &lt;a href=&quot;\nhttp://extraimago.com/image/jyt&quot; rel=&quot;nofollow&quot; target=&quot;_NEW&quot;&gt;\nhttp://extraimago.com/image/jyt&lt;/a&gt; &lt;a href=&quot;\nhttp://extraimago.com/image/jyx&quot; rel=&quot;nofollow&quot; target=&quot;_NEW&quot;&gt;\nhttp://extraimago.com/image/jyx&lt;/a&gt; &lt;a href=&quot;\nhttp://extraimago.com/image/jy6&quot; rel=&quot;nofollow&quot; target=&quot;_NEW&quot;&gt;\nhttp://extraimago.com/image/jy6&lt;/a&gt; &lt;a href=&quot;\nhttp://extraimago.com/image/jyV&quot; rel=&quot;nofollow&quot; target=&quot;_NEW&quot;&gt;\nhttp://extraimago.com/image/jyV&lt;/a&gt; &lt;a href=&quot;\nhttp://extraimago.com/image/jyu&quot; rel=&quot;nofollow&quot; target=&quot;_NEW&quot;&gt;\nhttp://extraimago.com/image/jyu&lt;/a&gt; &lt;a href=&quot;\nhttp://extraimago.com/image/jyv&quot; rel=&quot;nofollow&quot; target=&quot;_NEW&quot;&gt;\nhttp://extraimago.com/image/jyv&lt;/a&gt; &lt;a href=&quot;\nhttp://extraimago.com/image/jyA&quot; rel=&quot;nofollow&quot; target=&quot;_NEW&quot;&gt;\nhttp://extraimago.com/image/jyA&lt;/a&gt; &lt;a href=&quot;\nhttp://extraimago.com/image/jyW&quot; rel=&quot;nofollow&quot; target=&quot;_NEW&quot;&gt;\nhttp://extraimago.com/image/jyW&lt;/a&gt; &lt;a href=&quot;\nhttp://extraimago.com/image/jyf&quot; rel=&quot;nofollow&quot; target=&quot;_NEW&quot;&gt;\nhttp://extraimago.com/image/jyf&lt;/a&gt; &lt;a href=&quot;\nhttp://extraimago.com/image/jL8&quot; rel=&quot;nofollow&quot; target=&quot;_NEW&quot;&gt;\nhttp://extraimago.com/image/jL8&lt;/a&gt;","torrent":{"xt":"urn:btih:3b8f9a534ead7b217d369ec44b783866e1065b3f","amp;dn":"Spy.2015.CAM.x264-MenaceIISociety","amp;tr":["udp%3A%2F%2Ftracker.openbittorrent.com%3A80","udp%3A%2F%2Fopen.demonii.com%3A1337","udp%3A%2F%2Ftracker.coppersurfer.tk%3A6969","udp%3A%2F%2Fexodus.desync.com%3A6969"],"infoHash":"3b8f9a534ead7b217d369ec44b783866e1065b3f","infoHashBuffer":{"type":"Buffer","data":[59,143,154,83,78,173,123,33,125,54,158,196,75,120,56,102,225,6,91,63]},"announce":[],"urlList":[]}}